# xmcd
#
# Track frame offsets: 
#        150
#        15998
#        32534
#        52456
#        69972
#        86033
#        106207
#        119553
#        133914
#        151233
#        168399
#
# Disc length: 2526 seconds
#
# Revision: 0
# Processed by: cddbd v1.5.2PL0 Copyright (c) Steve Scherf et al.
# Submitted via: ExactAudioCopyFreeDBPlugin 1.0
#
DISCID=8f09dc0b
DTITLE=John "Papa" Gros - River's on Fire
DYEAR=2016
DGENRE=Funk
TTITLE0=Crazy
TTITLE1=River's on Fire
TTITLE2=Her Love Can't Be Denied
TTITLE3=Sugar and Ice
TTITLE4=Two Little Angels
TTITLE5=House of Love
TTITLE6=Shaky Frank
TTITLE7=Same Old Same
TTITLE8=Why'd Ya Do It?
TTITLE9=Cocaine and Chicken Fricassee
TTITLE10=This New Year's Eve
EXTD=
EXTT0=
EXTT1=
EXTT2=
EXTT3=
EXTT4=
EXTT5=
EXTT6=
EXTT7=
EXTT8=
EXTT9=
EXTT10=
PLAYORDER=
